{"title":"Fist of Fury (1972) DvDRiP Remastered AC3-ENG_Subs-PsiKnife","uid":4331898,"size":1996381497,"categoryP":"video","categoryS":"movies","magnet":"?xt=urn:btih:b11b9a2e9c61370db9f1849ebbc4199742dd35dc&amp;dn=Fist+of+Fury+%281972%29+DvDRiP+Remastered+AC3-ENG_Subs-PsiKnife&amp;tr=udp%3A%2F%2Ftracker.openbittorrent.com%3A80&amp;tr=udp%3A%2F%2Fopen.demonii.com%3A1337&amp;tr=udp%3A%2F%2Ftracker.coppersurfer.tk%3A6969&amp;tr=udp%3A%2F%2Fexodus.desync.com%3A6969","seeders":1,"leechers":0,"uploader":"PsiKnife_KFT","files":3,"time":1218088232,"description":"Fist of Fury (1972) DvDRiP Remastered AC3-ENGSubs-PsiKnife\n\n\nThis is re-encode of the 7.5 Gig DVD+DL NTSC Rip of Fist of Fury by TEAM APEX, from their 45 gig release 'Bruce Lee ultimate Fully Remastered DVD Collection'.\n\nIt should be mentioned for Fist of Fury, the subs work fine, but for some reason the original DVD subs didn't include the opening narrative Chinese dialogue for the first minute or so. They will kick in when the spoken lines start, no worries.\n\nYou'll need DivX codec installed to watch this on your computer, or a DivX compatible DVD Player if you watch it on a standalone. You'll also need AC3/DirectShow Audio codec installed on your computer.\n\n*Thanks to mistertpitydafoo for his tips and suggestions on encoding quality DivX media*\n\n~PsiKnife_KFT\n\n\nFist of Fury (1972) DvDRiP-RemasterAC3-ENGSubs-PsiKnife.divx\n\n      Format : DivX\n      Format/Info : Hack of AVI\n      File size : 1.86 GiB\n      Duration : 1h 46mn\n      Overall bit rate : 2510 Kbps\n   Video\n      Format : MPEG-4 Visual\n      Format settings, BVOP : Yes\n      Format settings, QPel : No\n      Format settings, GMC : No warppoints\n      Format settings, Matrix : Default\n      Muxing mode : Packet Bitstream\n      Codec ID : DX50\n      Codec ID/Hint : DivX 5\n      Duration : 1h 46mn\n      Bit rate : 1851 Kbps\n      Width : 720 pixels\n      Height : 480 pixels\n      Display aspect ratio : 4.615\n      Frame rate : 29.970 fps\n      Standard : NTSC\n      Resolution : 8 bits\n      Colorimetry : 4:2:0\n      Scan type : Progressive\n      Bits/(Pixel*Frame) : 0.179\n      Stream size : 1.37 GiB (74%)\n      Title : Video \n      Writing library : DivX 2151\n   Audio\n      Format : AC-3\n      Format/Info : Audio Coding 3\n      Codec ID : 2000\n      Duration : 1h 46mn\n      Bit rate mode : Constant\n      Bit rate : 320 Kbps\n      Channel(s) : 2 channels\n      Channel positions : L R\n      Sampling rate : 48.0 KHz\n      Stream size : 243 MiB (13%)\n      Alignment : Split accross interleaves\n      Interleave, duration : 33 ms (1.00 video frame)\n      Interleave, preload duration : 500 ms\n      Title : Audio \n   Audio\n      Format : AC-3\n      Format/Info : Audio Coding 3\n      Codec ID : 2000\n      Duration : 1h 46mn\n      Bit rate mode : Constant\n      Bit rate : 320 Kbps\n      Channel(s) : 2 channels\n      Channel positions : L R\n      Sampling rate : 48.0 KHz\n      Stream size : 243 MiB (13%)\n      Alignment : Split accross interleaves\n      Interleave, duration : 33 ms (1.00 video frame)\n      Interleave, preload duration : 500 ms\n      Title : Audio \n   Text\n      Format : DivX Subtitle\n      Codec ID : DXSB\n      Codec ID/Info : Subtitle in AVI from DivX networks\n      Width : 640 pixels\n      Height : 480 pixels\n      Resolution : 4 bits\n      Stream size : 1.19 MiB (0%)\n      Title : Subtitle","torrent":{"xt":"urn:btih:b11b9a2e9c61370db9f1849ebbc4199742dd35dc","amp;dn":"Fist+of+Fury+%281972%29+DvDRiP+Remastered+AC3-ENG_Subs-PsiKnife","amp;tr":["udp%3A%2F%2Ftracker.openbittorrent.com%3A80","udp%3A%2F%2Fopen.demonii.com%3A1337","udp%3A%2F%2Ftracker.coppersurfer.tk%3A6969","udp%3A%2F%2Fexodus.desync.com%3A6969"],"infoHash":"b11b9a2e9c61370db9f1849ebbc4199742dd35dc","infoHashBuffer":{"type":"Buffer","data":[177,27,154,46,156,97,55,13,185,241,132,158,187,196,25,151,66,221,53,220]},"announce":[],"urlList":[]}}